<?xml version="1.0" encoding="utf-8"?>
<!-- Generator: Adobe Illustrator 19.2.1, SVG Export Plug-In . SVG Version: 6.00 Build 0)  -->
<svg version="1.1" id="Layer_1" xmlns="http://www.w3.org/2000/svg" xmlns:xlink="http://www.w3.org/1999/xlink" x="0px" y="0px"
	 viewBox="0 0 120 36.1" style="enable-background:new 0 0 120 36.1;" xml:space="preserve">
<style type="text/css">
	.st0{fill:#CC2127;}
	.st1{fill:none;}
	.st2{fill:#FFFFFF;}
	.st3{font-family:'HelveticaNeue';}
	.st4{font-size:14px;}
</style>
<path class="st0" d="M115,35H5c-2.8,0-5-2.2-5-5V5c0-2.8,2.2-5,5-5h110c2.8,0,5,2.2,5,5v25C120,32.8,117.8,35,115,35z"/>
<path class="st1" d="M115,34H5c-2.8,0-5-2.2-5-5V6c0-2.8,2.2-5,5-5h110c2.8,0,5,2.2,5,5v23C120,31.8,117.8,34,115,34z"/>
<text transform="matrix(1 0 0 1 9.5584 22.0844)" class="st2 st3 st4">Order a 3D print</text>
</svg>
