<svg xmlns="http://www.w3.org/2000/svg" xmlns:xlink="http://www.w3.org/1999/xlink" preserveAspectRatio="xMidYMid" width="41" height="63" viewBox="0 0 41 63">
  <defs>
    <style>

      .cls-3 {
        fill: #000000;
      }
    </style>
  </defs>
  <g id="group-77svg">
    <path d="M20.297,39.194 C19.882,39.194 19.485,39.022 19.201,38.719 C19.201,38.719 0.956,19.221 0.956,19.221 C-0.017,18.178 -0.271,16.726 0.293,15.429 C0.859,14.123 2.103,13.312 3.539,13.312 C3.539,13.312 37.056,13.312 37.056,13.312 C38.492,13.312 39.736,14.122 40.303,15.425 C40.863,16.717 40.609,18.166 39.639,19.206 C39.639,19.206 21.393,38.719 21.393,38.719 C21.109,39.021 20.712,39.194 20.297,39.194 ZM3.539,16.312 C3.226,16.312 3.095,16.508 3.044,16.624 C2.985,16.760 2.955,16.965 3.148,17.172 C3.148,17.172 20.297,35.498 20.297,35.498 C20.297,35.498 37.446,17.158 37.446,17.158 C37.637,16.954 37.608,16.753 37.551,16.621 C37.501,16.506 37.370,16.312 37.056,16.312 C37.056,16.312 3.539,16.312 3.539,16.312 Z" id="path-1" class="cls-3" fill-rule="evenodd"/>
    <path d="M20.875,61.812 C20.047,61.812 19.375,61.141 19.375,60.312 C19.375,60.312 19.375,37.312 19.375,37.312 C19.375,36.484 20.047,35.812 20.875,35.812 C21.703,35.812 22.375,36.484 22.375,37.312 C22.375,37.312 22.375,60.312 22.375,60.312 C22.375,61.141 21.703,61.812 20.875,61.812 Z" id="path-2" class="cls-3" fill-rule="evenodd"/>
    <path d="M27.948,63.312 C27.948,63.312 12.948,63.312 12.948,63.312 C12.120,63.312 11.448,62.641 11.448,61.812 C11.448,60.984 12.120,60.312 12.948,60.312 C12.948,60.312 27.948,60.312 27.948,60.312 C28.776,60.312 29.448,60.984 29.448,61.812 C29.448,62.641 28.776,63.312 27.948,63.312 Z" id="path-3" class="cls-3" fill-rule="evenodd"/>
    <path d="M23.863,23.836 C23.737,23.836 23.608,23.820 23.480,23.786 C22.680,23.575 22.201,22.755 22.412,21.953 C22.412,21.953 27.497,2.632 27.497,2.632 C27.646,2.060 28.118,1.631 28.700,1.534 C28.700,1.534 37.853,0.009 37.853,0.009 C38.670,-0.130 39.443,0.424 39.579,1.242 C39.716,2.058 39.163,2.832 38.347,2.968 C38.347,2.968 30.151,4.334 30.151,4.334 C30.151,4.334 25.312,22.717 25.312,22.717 C25.136,23.391 24.528,23.836 23.863,23.836 Z" id="path-4" class="cls-3" fill-rule="evenodd"/>
  </g>
</svg>
