<?xml version="1.0" encoding="utf-8"?>
<!-- Generator: Adobe Illustrator 19.2.1, SVG Export Plug-In . SVG Version: 6.00 Build 0)  -->
<svg version="1.1" id="Layer_1" xmlns="http://www.w3.org/2000/svg" xmlns:xlink="http://www.w3.org/1999/xlink" x="0px" y="0px"
	 viewBox="0 0 26 26" style="enable-background:new 0 0 26 26;" xml:space="preserve">
<path d="M10,19h6c0,0-0.8,2.4-3,2.4C10.8,21.3,10,19,10,19z M18.9,15c0,1.3-1.2,2.3-2.7,2.3c-1.1,0-2-0.6-2.4-1.4
	c-0.2-0.4-0.4-0.9-0.9-0.9s-0.6,0.5-0.9,0.9c-0.4,0.8-1.3,1.4-2.4,1.4c-1.5,0-2.7-1-2.7-2.2s1.2-2.2,2.7-2.2c1,0,1.9,0.5,2.3,1.1
	c0.3-0.1,0.6-0.2,0.9-0.2s0.6,0.1,0.9,0.2c0.5-0.7,1.3-1.1,2.3-1.1C17.8,12.7,18.9,13.7,18.9,15z M11.8,15c0-0.9-0.6-1.6-2-1.6
	S7.7,14.1,7.7,15s0.7,1.6,2.1,1.6S11.8,15.9,11.8,15z M18.3,15c0-0.9-0.6-1.6-2-1.6s-1.9,0.7-1.9,1.6c0,0.9,0.6,1.6,1.9,1.6
	C17.6,16.6,18.3,15.9,18.3,15z M26,12.7c0,2.2-1,4.3-2,5.7h0c-0.5,0.7-1.3,0.8-2.2,1.1c-2.3,3.7-5.4,5.8-8.7,5.8s-6.5-2.2-8.8-5.9
	c-0.9-0.4-1.7-0.3-2.2-1.1h0c-1-1.4-2-3.5-2-5.7c0-5.6,3.1-9.5,9.3-8.1C8.5,3.9,7.4,3.5,6.2,3.3C8.4,0.3,11.7,0,13,0
	s4.6,0.3,6.8,3.3c-1.2,0.2-2.3,0.7-3.1,1.4C22.8,3.2,26,7,26,12.7z M21.2,12.1C16.4,12.4,13,9.6,13,8.3c0,1.3-3.5,4-8.2,3.7
	C2.2,19.8,8.9,24.9,13,24.9C16.9,24.9,23.8,20.1,21.2,12.1z"/>
</svg>
