<?xml version="1.0" encoding="utf-8"?>
<!-- Generator: Adobe Illustrator 19.2.1, SVG Export Plug-In . SVG Version: 6.00 Build 0)  -->
<svg version="1.1" id="Layer_1" xmlns="http://www.w3.org/2000/svg" xmlns:xlink="http://www.w3.org/1999/xlink" x="0px" y="0px"
	 viewBox="0 0 24 24" style="enable-background:new 0 0 24 24;" xml:space="preserve">
<path d="M16.5,12.5c0,0.8-0.6,1.5-1.2,1.5S14,13.3,14,12.5s0.6-1.5,1.2-1.5S16.5,11.7,16.5,12.5z M8.8,11c-0.7,0-1.2,0.7-1.2,1.5
	S8.1,14,8.8,14s1.2-0.7,1.2-1.5S9.4,11,8.8,11z M12,16.4c-2.4-1.5-1.7,2.1-5,0.6c0.5,2,3.5,2.4,5,1.1c1.5,1.2,4.5,0.9,5-1.1
	C13.7,18.5,14.4,14.9,12,16.4z M22.4,13.1c0,1.8-0.3,3-2.5,3.9c-2,3.3-4,5.6-7.9,5.6c-3.7,0-6-2.4-8-5.6c-2-1.3-2.4-1.8-2.4-3.6
	c0-2,0-2,1.5-2.8L2.7,9.3l0,0c-0.2-1.9-0.3-4.9,0.7-6c0.6-0.6,1.2-0.8,2-0.6C6.8,0.9,8.9,0,11.9,0c4.6,0,6.6,2.4,8.2,4.5
	c0.9,1.1,2,2.2,4,2.2c-0.8,0.8-1.8,1.4-2.8,1.8c0.1,0.3-0.6,2-0.6,2.3C21.7,10.9,22.4,11,22.4,13.1z M21.4,11.4
	c-0.2-0.2-0.5-0.1-0.7-0.1c-0.7,0.3-1.4-0.2-1.4-0.9c0-0.5,0-1-0.1-1.4C15.1,10,10.5,8.8,8.9,5.6C6.5,6,5,7.9,4.6,10.6h0
	c-0.1,0.7-0.8,1.1-1.4,0.8c-0.1-0.1-0.4-0.1-0.7,0.1c-1,0.7-0.9,4.2,1.6,5c0.2,0.1,0.4,0.2,0.5,0.4c1.7,2.8,4,5.1,7.3,5.1
	c3.3,0,5.6-2.3,7.3-5.1c0.1-0.2,0.3-0.4,0.5-0.4C22.3,15.6,22.4,12.1,21.4,11.4z"/>
</svg>
