<?xml version="1.0" encoding="utf-8"?>
<!-- Generator: Adobe Illustrator 19.2.1, SVG Export Plug-In . SVG Version: 6.00 Build 0)  -->
<svg version="1.1" id="Layer_1" xmlns="http://www.w3.org/2000/svg" xmlns:xlink="http://www.w3.org/1999/xlink" x="0px" y="0px"
	 viewBox="0 0 24 25" style="enable-background:new 0 0 24 25;" xml:space="preserve">
<path d="M21.1,11.7c-0.4-3.9-2.5-7.9-6-8.9C14.2,2.5,12.5,2.2,14,0C9.1,0,3.4,5.6,2.8,11.7c-0.6,0.3-1.3,0.6-1.3,2.6
	c0,1.8,1.5,3.2,2.6,3.7c2.9,5.4,6.6,5.4,7.9,5.4s4.8,0,7.8-5.4c1.4-0.3,2.6-1.9,2.6-3.7C22.4,12.3,21.7,12,21.1,11.7z M19.9,17.5
	c-0.2,0.1-0.5,0.3-0.6,0.5C16.9,22.6,13.1,23,12,23s-4.9-0.4-7.3-5c-0.1-0.2-0.3-0.4-0.6-0.5c-2.4-0.8-2.6-4.4-1.6-5
	c0.2-0.2,0.5-0.1,0.7-0.1c0.7,0.3,1.4-0.2,1.4-0.9c0-1,0.2-1.9,0.4-2.8c1.1-2.6,3.1,1.4,6.9,1.4c3.8,0,5.8-3.9,6.9-1.4
	c0.3,0.8,0.4,1.7,0.4,2.8c0,0.7,0.7,1.2,1.4,0.9c0.1-0.1,0.4-0.1,0.7,0.1C22.4,13.1,22.3,16.6,19.9,17.5z M16.5,12.8
	c0,0.8-0.8,1.1-1.5,1.1s-1,0.4-1-0.4s0.3-0.7,1-0.7S16.5,11.9,16.5,12.8z M8.8,13.9c-0.7,0-1.2-0.3-1.2-1.1s0.6,0,1.2,0
	s1.2-0.1,1.2,0.7S9.4,13.9,8.8,13.9z M9,18h6c0,0-0.8,2.4-3,2.4C9.8,20.4,9,18,9,18z"/>
</svg>
