<?xml version="1.0" encoding="utf-8"?>
<!-- Generator: Adobe Illustrator 19.2.1, SVG Export Plug-In . SVG Version: 6.00 Build 0)  -->
<svg version="1.1" id="Layer_1" xmlns="http://www.w3.org/2000/svg" xmlns:xlink="http://www.w3.org/1999/xlink" x="0px" y="0px"
	 viewBox="0 0 28 25" style="enable-background:new 0 0 28 25;" xml:space="preserve">
<path d="M18.7,12.9c0,0.8-1.5,1.2-2.2,1.2c-0.7,0-0.7,0.8-0.7,0s0.6-1.1,1.3-1.1S18.7,12,18.7,12.9z M11.7,13.9
	c0-0.8-0.6-0.9-1.3-0.9s-1.6-1-1.6-0.2s1.6,1.1,2.2,1.1S11.7,14.7,11.7,13.9z M14,20.4c2.2,0,3-2.4,3-2.4h-6
	C11,18,11.8,20.4,14,20.4z M28,16.6c0,5.1-4.1,6.4-8.6,5.6c-1.7,1.3-3.5,2.1-5.4,2.1s-3.7-0.9-5.4-2.1C4.1,23,0,21.7,0,16.6
	C0,8.6,5.6,0,14,0S28,8.6,28,16.6z M21.6,19c0.1-0.2,0.1-1.5,0.3-1.6c1.6-0.5,2.1-2.2,2.1-3.1c0-0.3,0-0.5-0.1-0.8
	c-4.2,0-6.9-5.2-6.8-8c-1.4,2.3-4.2,5.1-7,5.1c0.8-1.3,0.8-2.2,0.6-3.3c-0.6,1.3-3.1,5.3-6.6,5.9C4,13.5,4,13.9,4,14.3
	c0,1,0.6,2.6,2.1,3.1c0.2,0.1,0.3,1.2,0.4,1.4c2,3.3,4.7,5.1,7.4,5.1C16.7,23.9,19.5,22.3,21.6,19z"/>
</svg>
