<?xml version="1.0" encoding="utf-8"?>
<!-- Generator: Adobe Illustrator 19.2.1, SVG Export Plug-In . SVG Version: 6.00 Build 0)  -->
<svg version="1.1" id="Layer_1" xmlns="http://www.w3.org/2000/svg" xmlns:xlink="http://www.w3.org/1999/xlink" x="0px" y="0px"
	 viewBox="0 0 90 112.5" style="enable-background:new 0 0 90 112.5;" xml:space="preserve">
<path d="M78.3,42.6c-0.3-0.5-0.9-0.6-1.4-0.4c-2.1,1.2-3.7-0.1-6.5-2.5c-2-1.7-4.3-3.7-7.2-4.3c-3.1-0.6-5.8,0.8-7.5,2.7
	c-0.5-0.1-1-0.1-1.5-0.1c0,0,0,0-0.1,0c-1.2,0-2.5,0.2-3.7,0.6c-0.9-1.8-2.2-3.6-3.8-5.3c1.9-0.9,3.2-2.9,3.2-5.1
	c0-3.1-2.5-5.7-5.7-5.7c-2.7,0-5,1.9-5.5,4.4c-1-0.5-2-0.9-2.9-1.2c0.4-0.6,0.9-1.3,1.5-2c1.5-1.6,2-3.5,1.4-5.3
	c-0.1-0.4-0.3-0.8-0.6-1.2c1-2.2,0.8-4.6,0.1-6.3c0.9-1.2,1.7-2.6,2.1-4.3c0.1-0.5-0.2-1.1-0.7-1.2c-0.5-0.1-1.1,0.2-1.2,0.7
	C38,7.2,37.6,8.2,37,9c-0.7-0.9-1.7-1.5-2.6-1.6c-3.1-0.3-4.6,1-5,2.4c-0.4,1.3,0.2,2.7,1.4,3.4c1.2,0.7,2.7,0.7,4.2,0.1
	c0.5-0.2,1-0.5,1.5-0.9c0.2,0.9,0.3,2,0,3.1c-0.6-0.4-1.3-0.7-2-0.9c-1.6-0.3-3.1,0.1-4.1,1.3c-0.7,0.8-0.9,1.8-0.6,2.8
	c0.4,1.1,1.4,2,2.6,2.2c0.9,0.2,2.6,0.1,4.3-1.8c0.3,1.1-0.1,2.2-1,3.2s-1.6,1.9-2.1,2.8c-0.8-0.1-1.5-0.2-2.2-0.2
	c-2.1,0-3.9,0.7-5.2,1.9c-0.6,0.6-1.1,1.4-1.4,2.3l0,0L10.7,63.7c-0.3,0.7-0.2,1.5,0.2,2.2s1.2,1,1.9,1c0.3,0,0.6-0.1,0.9-0.2
	l21.4-8.8l0,0l13.1-5.4l0,0c0.9-0.3,1.7-0.8,2.3-1.4c2.4-2.4,2.5-6.4,0.7-10.7c0.9-0.3,1.9-0.4,2.8-0.4c0.1,0,0.2,0,0.3,0
	c-1.4,2.7-1.1,5.6,0.6,7.6c1,1.1,2.2,1.5,3.3,1.5c1,0,2-0.4,2.7-1c1.6-1.4,2.4-4.1,0.2-6.9c-0.9-1.1-2-2-3.3-2.5
	c1.3-1.1,3-1.7,4.9-1.3c2.4,0.5,4.4,2.2,6.3,3.8c2.7,2.3,5.4,4.6,8.8,2.7C78.4,43.7,78.6,43.1,78.3,42.6z M34.3,11.5
	c-0.6,0.3-1.5,0.5-2.4,0c-0.4-0.2-0.6-0.7-0.5-1.1c0.2-0.5,0.8-1,2.3-1c0.2,0,0.4,0,0.6,0c0.4,0,1,0.4,1.5,1.1
	C35.3,11,34.8,11.3,34.3,11.5z M35.5,17.8c-0.8,1-1.7,1.5-2.5,1.3c-0.5-0.1-0.9-0.4-1.1-0.9c-0.1-0.3,0-0.6,0.2-0.8
	c0.5-0.6,1.1-0.7,1.6-0.7c0.2,0,0.4,0,0.6,0.1c0.5,0.1,1.1,0.4,1.5,0.8C35.6,17.6,35.5,17.7,35.5,17.8z M44.2,24.5
	c2,0,3.7,1.6,3.7,3.7c0,1.8-1.4,3.4-3.2,3.6l0,0c-0.2,0-0.3,0.1-0.5,0.1s-0.5,0-0.7-0.1c-0.1,0-0.1,0-0.2,0c-0.2,0-0.3-0.1-0.5-0.2
	c-0.1,0-0.1-0.1-0.2-0.1c-0.1-0.1-0.3-0.1-0.4-0.2c-0.1-0.1-0.2-0.1-0.2-0.2c-0.1-0.1-0.2-0.1-0.3-0.2c-0.1-0.1-0.2-0.2-0.3-0.3
	c0-0.1-0.1-0.1-0.1-0.2c-0.1-0.2-0.2-0.3-0.3-0.5l0,0c-0.2-0.4-0.3-0.8-0.4-1.3l0,0c0-0.1,0-0.2,0-0.3
	C40.5,26.2,42.2,24.5,44.2,24.5z M32.7,47.1c0.1,0.1,0.2,0.2,0.3,0.2c0.4,0.3,0.8,0.7,1.2,1c0.1,0.1,0.1,0.1,0.2,0.2
	c0.4,0.3,0.7,0.5,1.1,0.8c0.1,0.1,0.2,0.1,0.2,0.2c0.4,0.3,0.8,0.5,1.2,0.8c0.1,0.1,0.2,0.1,0.3,0.2c0.4,0.2,0.8,0.5,1.2,0.7h0.1
	c0.4,0.2,0.8,0.4,1.3,0.6c0,0,0.1,0,0.1,0.1c-8.8-1-15.6-5.8-17.6-10.8l1-2.5c1.3,1.9,3.2,3.4,5.6,4.6c0.8,1,1.6,2,2.6,3
	C31.9,46.4,32.3,46.8,32.7,47.1z M34.7,56c-4.1-0.5-13.2-2.3-15.3-8.1l1.8-4.5c3.4,5.9,11.2,9.5,18.9,10.4L34.7,56z M27.2,59.1
	c-3.7-0.3-8.3-1.7-9.9-6.1l1.1-2.6c2.6,4.2,8.1,6.1,12.8,7.1L27.2,59.1z M20.5,61.8c-3.1,0-5.3-1.3-5.7-2.7l1.5-3.6
	c1.5,2.5,4,4.1,7.4,5L20.5,61.8z M26.3,39c-0.9-0.8-1.5-1.7-2.1-2.8l0.6-1.4C25.1,36.2,25.6,37.6,26.3,39z M13,64.9
	c-0.2,0.1-0.3,0-0.4-0.1c-0.1-0.1,0-0.3,0-0.3l1.3-3.1c0.8,0.8,1.8,1.5,3.1,1.9L13,64.9z M49.2,49.7c-0.4,0.4-1,0.8-1.6,1l0,0
	C47,50.9,46.2,51,45.4,51c-3.3,0-7.4-1.9-11-5c-0.1-0.1-0.3-0.2-0.4-0.4c-0.4-0.3-0.7-0.7-1.1-1c-0.3-0.3-0.7-0.7-1-1
	c-0.1-0.1-0.2-0.3-0.3-0.4c-0.2-0.2-0.4-0.4-0.6-0.7c-0.1-0.2-0.2-0.3-0.4-0.5c-0.2-0.2-0.3-0.4-0.5-0.6c-0.1-0.2-0.2-0.3-0.3-0.5
	c-0.1-0.2-0.3-0.4-0.4-0.6c-0.1-0.2-0.2-0.3-0.3-0.5c-0.2-0.2-0.3-0.5-0.4-0.7c-0.1-0.1-0.1-0.2-0.2-0.3c-0.2-0.4-0.4-0.7-0.6-1.1
	c0-0.1-0.1-0.2-0.1-0.2c-0.1-0.3-0.3-0.6-0.4-0.9c0-0.1-0.1-0.2-0.1-0.3c-0.1-0.3-0.2-0.5-0.3-0.8c0-0.1-0.1-0.2-0.1-0.3
	c-0.1-0.3-0.2-0.6-0.2-0.8c0-0.1,0-0.1-0.1-0.2c-0.1-0.3-0.1-0.6-0.2-0.9v-0.1c-0.1-0.7-0.1-1.3,0-1.9c0-0.1,0-0.1,0-0.1
	c0-0.2,0.1-0.5,0.1-0.7c0-0.1,0.1-0.2,0.1-0.3c0.2-0.8,0.6-1.4,1.1-1.9c0.9-0.9,2.1-1.3,3.7-1.3c0.4,0,0.8,0,1.2,0.1
	c-0.9,2-1,3.4-1,3.8c0,0.6,0.4,1,1,1l0,0c0.5,0,1-0.4,1-1c0-0.2,0.1-1.6,1-3.5c1.3,0.4,2.6,0.9,3.9,1.7c0.2,1,0.6,1.9,1.2,2.7
	c0,0,0,0,0.1,0.1c0.2,0.2,0.3,0.4,0.5,0.5c0.1,0,0.1,0.1,0.2,0.1c0.2,0.2,0.4,0.3,0.6,0.4c0.1,0,0.2,0.1,0.2,0.1
	c0.2,0.1,0.4,0.2,0.7,0.3c0.1,0,0.2,0.1,0.2,0.1c0.3,0.1,0.5,0.2,0.8,0.2c0.1,0,0.1,0,0.2,0c0.3,0,0.6,0.1,0.9,0.1
	c0.1,0,0.2,0,0.3,0c1.7,1.7,3,3.6,4,5.5c-2.5,1.1-4.8,2.9-6.6,5.3c-0.3,0.4-0.3,1.1,0.2,1.4c0.4,0.3,1.1,0.3,1.4-0.2
	c1.7-2.1,3.7-3.7,5.9-4.7C50.9,44.7,51,48,49.2,49.7z M59.7,42.5c1.5,1.9,1,3.5,0.1,4.2c-0.8,0.7-2.2,0.9-3.3-0.4
	c-1.5-1.7-1.1-4-0.2-5.6c0.1-0.1,0.1-0.2,0.2-0.3C57.8,40.8,58.9,41.5,59.7,42.5z M69.1,19.7c1.9,0,3.5-1.6,3.5-3.5
	s-1.6-3.5-3.5-3.5s-3.5,1.6-3.5,3.5S67.1,19.7,69.1,19.7z M69.1,14.7c0.8,0,1.5,0.7,1.5,1.5s-0.7,1.5-1.5,1.5s-1.5-0.7-1.5-1.5
	S68.2,14.7,69.1,14.7z M44.5,37.6c0-1.5-1.2-2.7-2.7-2.7s-2.7,1.2-2.7,2.7s1.2,2.7,2.7,2.7S44.5,39,44.5,37.6z M41.1,37.6
	c0-0.4,0.3-0.7,0.7-0.7s0.7,0.3,0.7,0.7s-0.3,0.7-0.7,0.7S41.1,37.9,41.1,37.6z M47.3,12.4l3.4,1.8l0.4,3.8c0,0.4,0.3,0.7,0.6,0.8
	c0.1,0,0.2,0.1,0.3,0.1c0.3,0,0.5-0.1,0.7-0.3l2.8-2.6l3.8,0.8c0.4,0.1,0.8-0.1,1-0.4s0.3-0.7,0.1-1l-1.6-3.5l1.9-3.3
	c0.2-0.3,0.2-0.7,0-1.1c-0.2-0.3-0.6-0.5-1-0.4l-3.8,0.6l-2.6-2.9c-0.3-0.3-0.6-0.4-1-0.3c-0.4,0.1-0.6,0.4-0.7,0.8l-0.7,3.8
	l-3.5,1.6c-0.3,0.2-0.6,0.5-0.6,0.9S47,12.2,47.3,12.4z M52.2,10.7c0.3-0.1,0.5-0.4,0.6-0.7l0.4-2.3l1.6,1.7
	c0.2,0.2,0.5,0.4,0.9,0.3L58,9.4l-1.2,2c-0.2,0.3-0.2,0.6,0,0.9l1,2.1L55.5,14c-0.3-0.1-0.7,0-0.9,0.3l-1.7,1.6l-0.2-2.3
	c0-0.3-0.2-0.6-0.5-0.8l-2.1-1.1L52.2,10.7z M57,23.2c-0.4-0.1-0.8,0-1,0.2c-0.3,0.3-0.4,0.7-0.2,1l0.8,2.4l-1.5,2
	c-0.2,0.3-0.3,0.7-0.1,1.1c0.2,0.3,0.5,0.5,0.9,0.6h2.5l1.4,2.1c0.2,0.3,0.5,0.4,0.8,0.4h0.1c0.4-0.1,0.7-0.3,0.8-0.7l0.8-2.4
	l2.4-0.7c0.4-0.1,0.6-0.4,0.7-0.8c0.1-0.4-0.1-0.8-0.4-1l-2-1.5l0.1-2.5c0-0.4-0.2-0.7-0.5-0.9c-0.3-0.2-0.7-0.1-1.1,0.1l-2,1.5
	L57,23.2z M60.1,25.9l0.8-0.6v1c0,0.3,0.1,0.6,0.4,0.8l0.8,0.6l-1,0.3c-0.3,0.1-0.6,0.3-0.7,0.7l-0.3,1l-0.6-0.8
	c-0.2-0.3-0.5-0.4-0.8-0.4l0,0h-1l0.6-0.8c0.2-0.3,0.3-0.6,0.2-0.9l-0.3-1l1,0.3C59.5,26.2,59.9,26.1,60.1,25.9z"/>
</svg>
