<!-- Generator: Adobe Illustrator 19.0.0, SVG Export Plug-In  -->
<svg version="1.1"
	 xmlns="http://www.w3.org/2000/svg" xmlns:xlink="http://www.w3.org/1999/xlink" xmlns:a="http://ns.adobe.com/AdobeSVGViewerExtensions/3.0/"
	 x="0px" y="0px" width="37px" height="37px" viewBox="0 0 37 37" style="enable-background:new 0 0 37 37;" xml:space="preserve">
<style type="text/css">
	.st0{fill:#191717;}
	.st1{fill:none;stroke:#000000;stroke-width:2;stroke-miterlimit:10;}
</style>
<defs>
</defs>
<g id="Git_1_">
	<path id="XMLID_17_" class="st0" d="M12.267,22.375c1.059,1.4,1.446,3.089,3.506,3.032c0.965-0.026,0.611,0.936,0.469,1.328
		c-0.335,0.926-0.999,0.212-1.419,0.036c-3.852-1.615-5.914-6.246-4.671-10.378c1.26-4.191,5.634-6.898,9.849-6.097
		c3.737,0.71,6.575,3.594,7.186,7.3c0.581,3.524-1.315,7.227-4.531,8.969c-1.278,0.693-2.033,0.958-2.015-1.064
		c0.014-1.65-0.242-2.91,1.895-3.674c1.571-0.561,1.842-2.518,1.422-4.199c-0.242-0.969-0.746-1.845-0.676-2.919
		c0.063-0.974-0.548-0.946-1.322-0.679c-2.308,0.795-4.642,0.787-6.955-0.012c-0.516-0.178-1.233-0.363-1.187,0.314
		c0.107,1.592-0.991,2.891-0.897,4.426c0.105,1.717,0.765,3.088,2.548,3.683c0.511,0.171,1.562,0.015,0.917,1.134
		c-0.493,0.854-1.195,0.653-1.886,0.294C13.801,23.506,13.608,22.496,12.267,22.375z"/>
	<circle id="XMLID_16_" class="st1" cx="18.5" cy="18.5" r="17.5"/>
</g>
</svg>