<!-- Generator: Adobe Illustrator 19.0.0, SVG Export Plug-In  -->
<svg version="1.1"
	 xmlns="http://www.w3.org/2000/svg" xmlns:xlink="http://www.w3.org/1999/xlink" xmlns:a="http://ns.adobe.com/AdobeSVGViewerExtensions/3.0/"
	 x="0px" y="0px" width="37px" height="37px" viewBox="0 0 37 37" style="enable-background:new 0 0 37 37;" xml:space="preserve">
<style type="text/css">
	.st0{fill:#2EBF02;}
	.st1{fill:none;stroke:#2EBF02;stroke-width:2;stroke-miterlimit:10;}
</style>
<defs>
</defs>
<g id="Wechat_1_">
	<g id="XMLID_18_">
		<path id="XMLID_23_" class="st0" d="M22.723,15.205c-4.133,0.229-7.41,3.134-7.182,7.364c-0.913-0.049-1.871-0.294-2.725-0.093
			c-0.841,0.198-1.576,0.846-2.434,1.341c0.099-0.467,0.13-0.893,0.281-1.272c0.31-0.776,0.082-1.253-0.588-1.746
			c-1.313-0.967-2.196-2.273-2.459-3.915c-0.34-2.119,0.274-3.983,1.748-5.51c3.383-3.507,9.6-3.03,12.339,0.91
			C22.355,13.222,22.72,14.268,22.723,15.205z M13.394,14.391c0.004-0.472-0.458-0.911-0.95-0.904
			c-0.479,0.008-0.885,0.41-0.891,0.884c-0.007,0.468,0.396,0.884,0.873,0.902C12.915,15.293,13.39,14.859,13.394,14.391z
			 M19.212,14.361c-0.013-0.466-0.435-0.873-0.907-0.875c-0.495-0.002-0.943,0.442-0.929,0.921c0.014,0.494,0.463,0.896,0.972,0.869
			C18.82,15.251,19.226,14.821,19.212,14.361z"/>
		<path id="XMLID_19_" class="st0" d="M27.265,27.988c-1.175-1.047-2.427-0.68-3.761-0.504c-2.726,0.359-4.923-0.736-6.374-3.088
			c-1.301-2.107-0.909-4.627,0.874-6.424c3.011-3.034,8.438-2.527,10.635,0.995c1.348,2.161,1.051,4.747-0.752,6.537
			c-0.149,0.148-0.305,0.291-0.453,0.441c-0.392,0.398-0.537,0.842-0.275,1.376c0.079,0.161,0.115,0.342,0.171,0.514
			C27.308,27.886,27.286,27.937,27.265,27.988z M20.767,20.065c-0.068-0.417-0.292-0.737-0.766-0.734
			c-0.432,0.002-0.716,0.272-0.737,0.71c-0.021,0.446,0.257,0.728,0.681,0.762C20.411,20.84,20.677,20.555,20.767,20.065z
			 M25.496,20.284c-0.079-0.634-0.301-0.948-0.768-0.952c-0.434-0.004-0.712,0.282-0.728,0.704
			c-0.017,0.457,0.274,0.805,0.722,0.748C25.018,20.746,25.28,20.432,25.496,20.284z"/>
	</g>
	<circle id="XMLID_17_" class="st1" cx="18.5" cy="18.5" r="17.5"/>
</g>
</svg>