<!-- Generator: Adobe Illustrator 19.0.0, SVG Export Plug-In  -->
<svg version="1.1"
	 xmlns="http://www.w3.org/2000/svg" xmlns:xlink="http://www.w3.org/1999/xlink" xmlns:a="http://ns.adobe.com/AdobeSVGViewerExtensions/3.0/"
	 x="0px" y="0px" width="37px" height="37px" viewBox="0 0 37 37" style="enable-background:new 0 0 37 37;" xml:space="preserve">
<style type="text/css">
	.st0{fill:#28A9E0;}
	.st1{fill:none;stroke:#28A9E0;stroke-width:2;stroke-miterlimit:10;}
</style>
<defs>
</defs>
<g id="Twitter_1_">
	<path id="XMLID_17_" class="st0" d="M10.524,24.39c1.302-0.228,2.697-0.295,3.92-1.414c-2.662-0.631-2.869-3.249-3.653-5.041
		c-0.457-1.044-0.613-3.003-0.36-4.565c0.196-1.215,0.746-0.782,1.276-0.257c1.271,1.258,2.793,2.05,4.497,2.553
		c1.139,0.336,1.801,0.364,2.078-1.174c0.47-2.608,2.692-3.59,5.121-2.523c0.391,0.172,0.77,0.396,1.179,0.496
		c0.524,0.128,1.064-0.466,1.585-0.066c0.455,0.349-1.161,0.631-0.025,1.21c0.826,0.421-0.11,0.809-0.365,1.065
		c-0.548,0.549-0.393,1.21-0.477,1.839c-0.962,7.189-7.721,11.354-14.002,8.627C10.983,25.003,10.56,24.989,10.524,24.39z"/>
	<circle id="XMLID_16_" class="st1" cx="18.5" cy="18.5" r="17.5"/>
</g>
</svg>