<!-- Generator: Adobe Illustrator 19.0.0, SVG Export Plug-In  -->
<svg version="1.1"
	 xmlns="http://www.w3.org/2000/svg" xmlns:xlink="http://www.w3.org/1999/xlink" xmlns:a="http://ns.adobe.com/AdobeSVGViewerExtensions/3.0/"
	 x="0px" y="0px" width="37px" height="37px" viewBox="0 0 37 37" style="enable-background:new 0 0 37 37;" xml:space="preserve">
<style type="text/css">
	.st0{fill:#017BB5;}
	.st1{fill:#027BB5;}
	.st2{fill:#047DB5;}
	.st3{fill:none;stroke:#017BB5;stroke-width:2;stroke-miterlimit:10;}
</style>
<defs>
</defs>
<g id="Linkedin_1_">
	<path id="XMLID_19_" class="st0" d="M15.92,21.409c0-1.311-0.049-2.625,0.021-3.933c0.035-0.652-0.442-1.723,0.546-1.843
		c0.928-0.113,2.199-0.761,2.868,0.516c0.495,0.944,0.713,0.116,1.021-0.059c3.528-2.011,6.67-0.322,6.856,3.738
		c0.08,1.745-0.124,3.511,0.058,5.241c0.199,1.891-0.505,2.39-2.286,2.227c-1.023-0.094-1.403-0.343-1.363-1.388
		c0.064-1.673,0.063-3.353-0.018-5.025c-0.059-1.207-0.33-2.379-1.941-2.375c-1.53,0.004-1.997,1.041-2.07,2.3
		c-0.093,1.598-0.161,3.21-0.053,4.804c0.095,1.408-0.455,1.71-1.751,1.681c-1.266-0.029-2.089-0.117-1.917-1.732
		C16.035,24.19,15.92,22.793,15.92,21.409z"/>
	<path id="XMLID_18_" class="st1" d="M13.684,21.353c0.001,1.237,0.003,2.475,0,3.712c-0.005,2.124-0.831,2.707-2.898,2.195
		c-0.711-0.176-0.712-0.599-0.713-1.107c-0.005-3.13,0.037-6.261-0.017-9.39c-0.028-1.597,1.068-1.207,1.946-1.243
		c0.883-0.036,1.782-0.162,1.701,1.248C13.616,18.292,13.683,19.824,13.684,21.353z"/>
	<path id="XMLID_17_" class="st2" d="M11.913,13.953c-1.194-0.121-2.078-0.706-2.13-2c-0.052-1.272,0.71-2.088,1.963-2.169
		c1.291-0.084,2.078,0.727,2.156,1.967C13.981,13.022,13.204,13.747,11.913,13.953z"/>
	<circle id="XMLID_16_" class="st3" cx="18.5" cy="18.5" r="17.5"/>
</g>
</svg>