<!-- Generator: Adobe Illustrator 19.0.0, SVG Export Plug-In  -->
<svg version="1.1"
	 xmlns="http://www.w3.org/2000/svg" xmlns:xlink="http://www.w3.org/1999/xlink" xmlns:a="http://ns.adobe.com/AdobeSVGViewerExtensions/3.0/"
	 x="0px" y="0px" width="37px" height="37px" viewBox="0 0 37 37" style="enable-background:new 0 0 37 37;" xml:space="preserve">
<style type="text/css">
	.st0{fill:#3D5B99;}
	.st1{fill:none;stroke:#3D5B99;stroke-width:2;stroke-miterlimit:10;}
</style>
<defs>
</defs>
<g id="Facebook_1_">
	<path id="XMLID_17_" class="st0" d="M21.445,9.752c0.752,0.126,1.881-0.418,1.905,1.227c0.018,1.301-0.297,1.868-1.687,1.759
		c-1.474-0.115-1.484,0.972-1.545,2.061c-0.069,1.235,0.544,1.472,1.591,1.42c0.681-0.034,1.623-0.19,1.315,1.051
		c-0.214,0.863,0.243,2.259-1.478,2.021c-1.224-0.169-1.466,0.475-1.427,1.533c0.059,1.599-0.079,3.208,0.04,4.8
		c0.108,1.442-0.53,1.661-1.785,1.668c-1.266,0.008-1.653-0.427-1.578-1.637c0.085-1.377-0.014-2.765,0.029-4.146
		c0.04-1.3,0.153-2.495-1.818-2.254c-1.184,0.145-0.84-0.922-0.87-1.572c-0.032-0.692-0.209-1.619,0.972-1.463
		c1.844,0.245,1.693-0.931,1.728-2.155C16.922,11.08,18.378,9.736,21.445,9.752z"/>
	<circle id="XMLID_16_" class="st1" cx="18.5" cy="18.5" r="17.5"/>
</g>
</svg>