<!-- Generator: Adobe Illustrator 19.0.0, SVG Export Plug-In  -->
<svg version="1.1"
	 xmlns="http://www.w3.org/2000/svg" xmlns:xlink="http://www.w3.org/1999/xlink" xmlns:a="http://ns.adobe.com/AdobeSVGViewerExtensions/3.0/"
	 x="0px" y="0px" width="37px" height="37px" viewBox="0 0 37 37" style="enable-background:new 0 0 37 37;" xml:space="preserve">
<style type="text/css">
	.st0{fill:#BD081C;}
	.st1{fill:none;stroke:#BD081C;stroke-width:2;stroke-miterlimit:10;}
</style>
<defs>
</defs>
<g id="Weibo_1_">
	<g id="XMLID_18_">
		<path id="XMLID_25_" class="st0" d="M18.452,15.989c0.6-0.199,1.07-0.419,1.564-0.503c0.694-0.118,1.418-0.247,2.107-0.17
			c1.006,0.113,1.391,0.803,1.17,1.794c-0.205,0.922-0.205,0.922,0.649,1.302c1.706,0.759,2.216,2.263,1.289,3.879
			c-0.804,1.4-2.053,2.309-3.52,2.874c-3.52,1.357-6.991,1.302-10.269-0.707c-2.004-1.228-2.55-3.162-1.616-5.304
			c0.269-0.618,0.613-1.221,1.017-1.759c1.409-1.876,3.092-3.419,5.379-4.169c0.203-0.067,0.415-0.116,0.626-0.15
			c1.208-0.199,2.006,0.602,1.81,1.816C18.605,15.223,18.535,15.552,18.452,15.989z M17.167,17.535
			c-0.257,0.025-0.672,0.045-1.081,0.11c-1.595,0.251-3.041,0.82-4.117,2.086c-1.097,1.29-0.961,2.872,0.332,3.956
			c0.289,0.243,0.614,0.458,0.953,0.623c1.501,0.731,3.083,0.85,4.706,0.545c1.397-0.263,2.669-0.793,3.654-1.86
			c1.332-1.443,1.13-3.227-0.478-4.361C19.993,17.829,18.69,17.579,17.167,17.535z"/>
		<path id="XMLID_24_" class="st0" d="M23.095,10.909c3.356,0.054,5.673,3.086,4.788,6.29c-0.148,0.535-0.479,0.765-0.929,0.643
			c-0.396-0.107-0.561-0.489-0.436-1.011c0.506-2.113-0.642-3.993-2.743-4.424c-0.428-0.088-0.892-0.035-1.335,0
			c-0.449,0.036-0.799-0.145-0.878-0.523c-0.093-0.44,0.107-0.752,0.598-0.861C22.466,10.955,22.783,10.945,23.095,10.909z"/>
		<path id="XMLID_23_" class="st0" d="M22.999,14.719c-0.558,0.024-0.804-0.133-0.838-0.537c-0.035-0.421,0.225-0.673,0.752-0.73
			c1.642-0.179,3.056,1.571,2.52,3.118c-0.112,0.324-0.34,0.504-0.676,0.454c-0.364-0.054-0.534-0.301-0.507-0.673
			c0.006-0.082,0.018-0.165,0.029-0.247C24.395,15.222,23.894,14.68,22.999,14.719z"/>
		<path id="XMLID_20_" class="st0" d="M18.708,21.664c-0.004,1.153-1.012,2.213-2.348,2.451c-0.735,0.131-1.452,0.074-2.121-0.291
			c-1.143-0.624-1.45-1.94-0.706-3.009c0.878-1.26,2.806-1.677,4.13-0.894C18.34,20.321,18.71,20.939,18.708,21.664z M14.936,23.159
			c0.566-0.011,1.074-0.466,1.074-0.965c0-0.402-0.381-0.747-0.831-0.753c-0.542-0.007-1.103,0.514-1.09,1.012
			C14.1,22.888,14.438,23.168,14.936,23.159z"/>
		<path id="XMLID_19_" class="st0" d="M14.936,23.159c-0.499,0.009-0.836-0.271-0.847-0.706c-0.013-0.499,0.548-1.02,1.09-1.012
			c0.45,0.006,0.831,0.352,0.831,0.753C16.01,22.693,15.503,23.148,14.936,23.159z"/>
	</g>
	<circle id="XMLID_17_" class="st1" cx="18.5" cy="18.5" r="17.5"/>
</g>
</svg>