<?xml version="1.0" encoding="utf-8"?>
<!-- Generator: Adobe Illustrator 19.2.1, SVG Export Plug-In . SVG Version: 6.00 Build 0)  -->
<svg version="1.1" id="Layer_2" xmlns="http://www.w3.org/2000/svg" xmlns:xlink="http://www.w3.org/1999/xlink" x="0px" y="0px"
	 viewBox="0 0 24 25" style="enable-background:new 0 0 24 25;" xml:space="preserve">
<style type="text/css">
	.st0{fill:none;stroke:#000000;stroke-width:0.4;stroke-miterlimit:10;}
	.st1{fill:none;stroke:#000000;stroke-width:0.2;stroke-miterlimit:10;}
	.st2{stroke:#000000;stroke-width:0.2;stroke-miterlimit:10;}
	.st3{fill:#FFFFFF;}
</style>
<path class="st0" d="M18.3,22.2H5.7c-1.1,0-2-0.9-2-2V7.6c0-1.1,0.9-2,2-2h12.6c1.1,0,2,0.9,2,2v12.6C20.3,21.3,19.4,22.2,18.3,22.2
	z"/>
<g>
	<path class="st1" d="M14.1,18.5c-0.9,0.2-2.8,0.3-4.3-0.1C9.5,18.3,9,17.9,9,17.5c0,0,0,0,0,0c0-0.4,0.4-0.6,0.8-0.5
		c1.8,0.3,2.8,0.3,4.6,0c0.4-0.1,0.8,0.2,0.7,0.7c0,0,0,0,0,0C15,18.1,14.3,18.5,14.1,18.5z"/>
</g>
<circle class="st2" cx="8.9" cy="12" r="1.4"/>
<path class="st1" d="M10.3,5.6c0-1,0.8-1.7,1.7-1.7s1.7,0.8,1.7,1.7"/>
<path class="st1" d="M1.7,14.2c-0.6,0-1.1-0.5-1.1-1.2s0.5-1.2,1.1-1.2"/>
<path class="st1" d="M22.3,14.2c0.6,0,1.1-0.5,1.1-1.2s-0.5-1.2-1.1-1.2"/>
<path class="st1" d="M10.8,4.4c-0.2-0.1-0.6-0.3-0.9-0.8c-0.4-0.5-0.4-1-0.4-1.2"/>
<path class="st1" d="M13.2,4.4c0.2-0.1,0.6-0.3,0.9-0.8c0.4-0.5,0.4-1,0.4-1.2"/>
<circle class="st1" cx="9.4" cy="1.8" r="0.6"/>
<circle class="st1" cx="14.6" cy="1.8" r="0.6"/>
<path class="st3" d="M9.8,13c0.2-0.2,0.2-0.2,0.3-0.4c0.1-0.2,0-0.3-0.1-0.1c-0.2,0.3-0.4,0.4-0.6,0.5c-0.1,0.1-0.1,0.2,0.1,0.2
	C9.5,13.2,9.6,13.1,9.8,13z"/>
<circle class="st2" cx="15.3" cy="11.9" r="1.4"/>
<path class="st3" d="M16.2,12.9c0.2-0.2,0.2-0.2,0.3-0.4c0.1-0.2,0-0.3-0.1-0.1c-0.2,0.3-0.4,0.4-0.6,0.5c-0.1,0.1-0.1,0.2,0.1,0.2
	C16,13,16.1,13,16.2,12.9z"/>
<path class="st0" d="M2.3,15.2h0.6c0.4,0,0.8-0.3,0.8-0.8v-2.9c0-0.4-0.3-0.8-0.8-0.8H2.3c-0.4,0-0.8,0.3-0.8,0.8v2.9
	C1.6,14.8,1.9,15.2,2.3,15.2z"/>
<path class="st0" d="M21,15.2h0.6c0.4,0,0.8-0.3,0.8-0.8v-2.9c0-0.4-0.3-0.8-0.8-0.8H21c-0.4,0-0.8,0.3-0.8,0.8v2.9
	C20.3,14.8,20.6,15.2,21,15.2z"/>
</svg>
