<?xml version="1.0" encoding="utf-8"?>
<!-- Generator: Adobe Illustrator 19.2.1, SVG Export Plug-In . SVG Version: 6.00 Build 0)  -->
<svg version="1.1" xmlns="http://www.w3.org/2000/svg" xmlns:xlink="http://www.w3.org/1999/xlink" x="0px" y="0px"
	 viewBox="0 0 657 608" style="enable-background:new 0 0 657 608;" xml:space="preserve">
<style type="text/css">
	.st0{clip-path:url(#XMLID_56_);}
	.st1{clip-path:url(#Inner_lines_6_);}
	.st2{fill:#FFFFFF;}
	.st3{fill:#ED1E25;}
	.st4{display:none;}
	.st5{fill:#FFFFFF;stroke:#FFFFFF;stroke-width:2;stroke-miterlimit:10;}
	.st6{stroke:#000000;stroke-width:2;stroke-miterlimit:10;}
</style>
<g id="Icon_white">
	<defs>
		<polygon id="XMLID_78_" points="1543.8,158.6 1794.6,12.9 2045.4,158.6 2045.4,449.9 1794.6,595.5 1543.8,449.9 		"/>
	</defs>
	<defs>
		<polygon id="Inner_lines_5_" points="1733.8,48.2 1727.9,51.7 1913,159.2 1672.2,299.1 1672.2,84 1666.2,87.5 1666.2,299.1 
			1543.8,228 1543.8,234.9 1663.2,304.2 1543.8,373.6 1543.8,380.5 1666.2,309.4 1666.2,521 1672.2,524.5 1672.2,309.5 1913,449.3 
			1727.9,556.8 1733.8,560.3 1921,451.6 1921,447 1921,161.5 1915,164.9 1915,443.6 1675.1,304.2 1915,164.9 1921,161.5 1921,156.9 
					"/>
	</defs>
	<defs>
		<polygon id="Outer_lines_5_" points="1727.9,51.7 1672.2,19.3 1672.2,84 1666.2,87.5 1666.2,17 1423.3,158 1543.8,228 
			1543.8,234.9 1419.4,162.6 1419.4,445.9 1543.8,373.6 1543.8,380.5 1423.3,450.5 1666.2,591.5 1666.2,521 1672.2,524.5 
			1672.2,589.2 1727.9,556.8 1733.8,560.3 1667.2,599 1413.4,451.6 1413.4,156.9 1667.2,9.5 1733.8,48.2 		"/>
	</defs>
	<use xlink:href="#XMLID_78_"  style="overflow:visible;fill:#FFFFFF;"/>
	<use xlink:href="#Inner_lines_5_"  style="overflow:visible;"/>
	<use xlink:href="#Outer_lines_5_"  style="overflow:visible;fill:#FFFFFF;"/>
	<clipPath id="XMLID_56_">
		<use xlink:href="#XMLID_78_"  style="overflow:visible;"/>
	</clipPath>
	<clipPath id="Inner_lines_6_" class="st0">
		<use xlink:href="#Inner_lines_5_"  style="overflow:visible;"/>
	</clipPath>
	<clipPath id="Outer_lines_6_" class="st1">
		<use xlink:href="#Outer_lines_5_"  style="overflow:visible;"/>
	</clipPath>
</g>
<g id="Icon_black">
</g>
<g id="Icon_red">
	<polygon id="XMLID_54_" class="st3" points="143,158.3 393.8,12.7 644.6,158.3 644.6,449.7 393.8,595.3 143,449.7 	"/>
	<polygon id="Inner_lines_3_" points="333.1,48 327.2,51.4 512.3,158.9 271.4,298.8 271.4,83.8 265.4,87.3 265.4,298.8 143,227.7 
		143,234.6 262.5,304 143,373.4 143,380.3 265.4,309.2 265.4,520.7 271.4,524.2 271.5,309.2 512.3,449.1 327.1,556.6 333.1,560 
		520.2,451.4 520.2,446.8 520.2,161.2 514.2,164.7 514.2,443.3 274.4,304 514.2,164.7 520.2,161.2 520.2,156.6 	"/>
	<polygon id="Outer_lines_3_" class="st4" points="327.2,51.4 271.4,19 271.4,83.8 265.4,87.3 265.4,16.7 22.6,157.8 143,227.7 
		143,234.6 18.6,162.4 18.6,445.6 143,373.4 143,380.3 22.6,450.2 265.4,591.3 265.4,520.7 271.4,524.2 271.4,589 327.1,556.6 
		333.1,560 266.4,598.8 12.6,451.4 12.6,156.6 266.4,9.2 333.1,48 	"/>
</g>
<g id="White">
</g>
<g id="Black">
</g>
<g id="Red">
</g>
</svg>
