<?xml version="1.0" encoding="utf-8"?>
<!-- Generator: Adobe Illustrator 19.2.1, SVG Export Plug-In . SVG Version: 6.00 Build 0)  -->
<svg version="1.1" xmlns="http://www.w3.org/2000/svg" xmlns:xlink="http://www.w3.org/1999/xlink" x="0px" y="0px"
	 viewBox="0 0 657 608" style="enable-background:new 0 0 657 608;" xml:space="preserve">
<style type="text/css">
	.st0{clip-path:url(#XMLID_56_);}
	.st1{clip-path:url(#Inner_lines_6_);}
	.st2{fill:#FFFFFF;}
	.st3{fill:#ED1E25;}
	.st4{fill:#FFFFFF;stroke:#FFFFFF;stroke-width:2;stroke-miterlimit:10;}
	.st5{stroke:#000000;stroke-width:2;stroke-miterlimit:10;}
</style>
<g id="Icon_white">
	<defs>
		<polygon id="XMLID_78_" points="844.2,158.6 1095.1,12.9 1345.9,158.6 1345.9,449.9 1095.1,595.5 844.2,449.9 		"/>
	</defs>
	<defs>
		<polygon id="Inner_lines_5_" points="1034.3,48.2 1028.4,51.7 1213.5,159.2 972.6,299.1 972.6,84 966.7,87.5 966.7,299.1 
			844.2,228 844.2,234.9 963.7,304.2 844.2,373.6 844.2,380.5 966.7,309.4 966.7,521 972.6,524.5 972.7,309.5 1213.5,449.3 
			1028.4,556.8 1034.3,560.3 1221.4,451.6 1221.4,447 1221.4,161.5 1215.5,164.9 1215.5,443.6 975.6,304.2 1215.5,164.9 
			1221.4,161.5 1221.4,156.9 		"/>
	</defs>
	<defs>
		<polygon id="Outer_lines_5_" points="1028.4,51.7 972.6,19.3 972.6,84 966.7,87.5 966.7,17 723.8,158 844.2,228 844.2,234.9 
			719.8,162.6 719.8,445.9 844.2,373.6 844.2,380.5 723.8,450.5 966.7,591.5 966.7,521 972.6,524.5 972.6,589.2 1028.4,556.8 
			1034.3,560.3 967.7,599 713.9,451.6 713.9,156.9 967.7,9.5 1034.3,48.2 		"/>
	</defs>
	<use xlink:href="#XMLID_78_"  style="overflow:visible;fill:#FFFFFF;"/>
	<use xlink:href="#Inner_lines_5_"  style="overflow:visible;"/>
	<use xlink:href="#Outer_lines_5_"  style="overflow:visible;fill:#FFFFFF;"/>
	<clipPath id="XMLID_56_">
		<use xlink:href="#XMLID_78_"  style="overflow:visible;"/>
	</clipPath>
	<clipPath id="Inner_lines_6_" class="st0">
		<use xlink:href="#Inner_lines_5_"  style="overflow:visible;"/>
	</clipPath>
	<clipPath id="Outer_lines_6_" class="st1">
		<use xlink:href="#Outer_lines_5_"  style="overflow:visible;"/>
	</clipPath>
</g>
<g id="Icon_black">
	<polygon id="XMLID_77_" points="143.9,158.7 394.7,13.1 645.5,158.7 645.5,450 394.7,595.7 143.9,450 	"/>
	<polygon id="Inner_lines_4_" class="st2" points="334,48.4 328,51.8 513.2,159.3 272.3,299.2 272.3,84.2 266.3,87.7 266.3,299.2 
		143.9,228.1 143.9,235 263.3,304.4 143.9,373.8 143.9,380.7 266.3,309.6 266.3,521.1 272.3,524.6 272.3,309.6 513.2,449.5 328,557 
		334,560.4 521.1,451.8 521.1,447.2 521.1,161.6 515.1,165.1 515.1,443.7 275.2,304.4 515.1,165.1 521.1,161.6 521.1,157 	"/>
	<polygon id="Outer_lines_4_" points="328,51.8 272.3,19.4 272.3,84.2 266.3,87.7 266.3,17.1 23.4,158.2 143.9,228.1 143.9,235 
		19.5,162.8 19.5,446 143.9,373.8 143.9,380.7 23.4,450.6 266.3,591.7 266.3,521.1 272.3,524.6 272.3,589.4 328,557 334,560.4 
		267.3,599.2 13.5,451.8 13.5,157 267.3,9.6 334,48.4 	"/>
</g>
<g id="Icon_red">
</g>
<g id="White">
</g>
<g id="Black">
</g>
<g id="Red">
</g>
</svg>
