<!-- Generator: Adobe Illustrator 19.0.0, SVG Export Plug-In  -->
<svg version="1.1"
	 xmlns="http://www.w3.org/2000/svg" xmlns:xlink="http://www.w3.org/1999/xlink" xmlns:a="http://ns.adobe.com/AdobeSVGViewerExtensions/3.0/"
	 x="0px" y="0px" width="37px" height="37px" viewBox="0 0 37 37" style="enable-background:new 0 0 37 37;" xml:space="preserve">
<style type="text/css">
	.st0{fill:#ED1C40;}
	.st1{fill:none;stroke:#ED1C40;stroke-width:2;stroke-miterlimit:10;}
</style>
<defs>
</defs>
<g id="Meetup_1_">
	<path id="XMLID_17_" class="st0" d="M10.163,22.476c0.141-0.58,0.271-1.163,0.426-1.739c0.614-2.292,1.33-4.55,2.201-6.758
		c0.425-1.078,1.175-1.789,2.301-2.086c0.486-0.128,0.965-0.104,1.424,0.116c0.425,0.204,0.852,0.404,1.271,0.62
		c0.518,0.268,0.875,0.224,1.309-0.172c0.232-0.212,0.462-0.429,0.714-0.616c0.723-0.535,1.554-0.513,2.26,0.044
		c0.171,0.135,0.338,0.273,0.503,0.414c0.29,0.247,0.466,0.271,0.789,0.082c0.721-0.422,1.489-0.444,2.258-0.21
		c1.082,0.329,1.669,1.416,1.442,2.541c-0.203,1.008-0.634,1.929-1.034,2.864c-0.497,1.162-0.992,2.325-1.446,3.504
		c-0.178,0.462-0.297,0.958-0.219,1.474c0.077,0.507,0.316,0.776,0.822,0.875c0.411,0.08,0.826,0.143,1.237,0.226
		c0.638,0.13,0.886,0.493,0.788,1.136c-0.053,0.345-0.301,0.591-0.728,0.663c-1.128,0.189-2.224,0.103-3.262-0.421
		c-0.964-0.486-1.451-1.289-1.61-2.339c-0.102-0.67,0.04-1.271,0.329-1.867c0.683-1.408,1.355-2.821,2.016-4.239
		c0.134-0.288,0.227-0.6,0.295-0.911c0.097-0.441-0.278-0.757-0.695-0.586c-0.172,0.071-0.335,0.202-0.457,0.345
		c-0.139,0.162-0.236,0.363-0.334,0.556c-1.027,2.014-2.051,4.031-3.076,6.046c-0.316,0.622-0.787,1.014-1.516,1.012
		c-0.869-0.002-1.337-0.622-1.052-1.443c0.275-0.791,0.599-1.565,0.901-2.346c0.302-0.781,0.62-1.557,0.894-2.348
		c0.078-0.226,0.079-0.509,0.023-0.743c-0.117-0.489-0.784-0.684-1.162-0.349c-0.156,0.138-0.285,0.333-0.364,0.527
		c-0.608,1.513-1.196,3.035-1.799,4.55c-0.34,0.855-0.689,1.707-1.05,2.554c-0.268,0.627-0.689,1.101-1.386,1.271
		c-1.258,0.307-2.647-0.53-2.916-1.767c-0.033-0.153-0.038-0.312-0.055-0.468C10.191,22.485,10.177,22.481,10.163,22.476z"/>
	<circle id="XMLID_16_" class="st1" cx="18.5" cy="18.5" r="17.5"/>
</g>
</svg>