<!-- Generator: Adobe Illustrator 19.0.0, SVG Export Plug-In  -->
<svg version="1.1"
	 xmlns="http://www.w3.org/2000/svg" xmlns:xlink="http://www.w3.org/1999/xlink" xmlns:a="http://ns.adobe.com/AdobeSVGViewerExtensions/3.0/"
	 x="0px" y="0px" width="1112.635px" height="589.512px" viewBox="0 0 1112.635 589.512"
	 style="enable-background:new 0 0 1112.635 589.512;" xml:space="preserve">
<style type="text/css">
	.st0{fill:#ED1E25;}
	.st1{display:none;}
	.st2{display:inline;}
	.st3{stroke:#000000;stroke-width:2;stroke-miterlimit:10;}
</style>
<defs>
</defs>
<g id="XMLID_1_">
	<polygon id="XMLID_114_" class="st0" points="130.377,149.104 381.184,3.45 631.987,149.104 631.987,440.408 381.184,586.058 
		130.377,440.408 	"/>
	<g id="XMLID_77_" class="st1">
		<path id="XMLID_111_" class="st2" d="M724.275,221.561v-8.642h17.682v-9.426h9.426v9.426h18.072v8.642h-33.78
			c1.038,1.571,2.611,3.932,4.709,7.076c1.307,1.833,2.354,3.273,3.143,4.319l-5.892,3.143h11.393
			c2.876-4.715,5.498-9.43,7.852-14.141l9.039,3.144c-2.354,3.927-4.715,7.599-7.073,10.997h12.573v8.643h-19.644v9.033h17.68v8.643
			h-17.68v5.107l3.932-3.145c3.139,2.357,7.983,7.207,14.535,14.539l-6.677,5.889c-0.532-0.521-1.448-1.571-2.751-3.143
			c-4.195-5.233-7.207-8.769-9.039-10.606v24.753h-9.818v-25.145c-4.193,7.598-9.567,14.011-16.11,19.249l-5.89-7.071
			c8.115-6.021,14.272-12.83,18.463-20.427h-14.537v-8.643h18.074v-9.033h-20.428v-8.643h13.351
			c-2.354-3.665-4.709-7.202-7.065-10.605l7.463-3.932H724.275z M796.564,296.203v-48.709h-11.792v1.566
			c0.522,20.955-3.139,36.931-10.999,47.927c-0.783-0.526-2.223-1.441-4.318-2.746c-1.837-1.316-3.279-2.361-4.326-3.144
			c7.073-9.165,10.348-23.435,9.826-42.82v-37.32c0.522,0,1.434-0.127,2.747-0.392c15.449-1.044,26.844-2.225,34.174-3.536
			l3.147,9.432c-1.317,0.26-3.147,0.521-5.5,0.783c-10.214,1.048-18.463,1.831-24.751,2.359v18.46h31.82v9.431h-10.605v48.709
			H796.564z"/>
		<path id="XMLID_109_" class="st2" d="M860.473,291.75v-81.617c0-1.131,0.468-2.024,1.395-2.672
			c0.935-0.648,2.005-0.968,3.221-0.968h42.755c1.13,0,1.997,0.441,2.611,1.331c0.608,0.898,0.908,1.948,0.908,3.163
			c0,1.377-0.3,2.506-0.908,3.399c-0.614,0.894-1.481,1.337-2.611,1.337h-37.166v30.848h18.948c1.128,0,2.003,0.423,2.605,1.276
			c0.61,0.853,0.914,1.882,0.914,3.097c0,1.05-0.304,2.004-0.914,2.853c-0.602,0.848-1.477,1.275-2.605,1.275h-18.948v36.679
			c0,1.134-0.507,2.003-1.516,2.611c-1.015,0.608-2.208,0.909-3.585,0.909c-1.378,0-2.572-0.301-3.581-0.909
			C860.981,293.753,860.473,292.884,860.473,291.75z"/>
		<path id="XMLID_106_" class="st2" d="M902.742,291.021c0-0.161,0.08-0.487,0.246-0.974l24.85-80.743
			c0.717-2.362,2.784-3.546,6.192-3.546c3.416,0,5.479,1.195,6.198,3.576l24.942,81.035c0,0.156,0.019,0.306,0.055,0.457
			c0.047,0.15,0.066,0.266,0.066,0.341c0,1.065-0.668,2.015-2.009,2.852c-1.331,0.833-2.773,1.251-4.31,1.251
			c-1.943,0-3.156-0.764-3.643-2.29l-5.337-17.993h-32.145l-5.319,17.928c-0.483,1.572-1.711,2.356-3.706,2.356
			c-1.426,0-2.804-0.402-4.113-1.211C903.399,293.25,902.742,292.237,902.742,291.021z M920.375,266.485h27.101l-13.512-45.752
			L920.375,266.485z"/>
		<path id="XMLID_102_" class="st2" d="M976.097,291.75v-81.617c0-1.131,0.464-2.024,1.395-2.672
			c0.929-0.648,2.001-0.968,3.219-0.968h20.885c7.615,0,13.625,1.495,18.039,4.494c4.413,2.993,6.619,8.421,6.619,16.274
			c0,5.017-0.91,9.245-2.732,12.69c-1.822,3.445-4.353,5.849-7.593,7.226c4.133,1.623,7.246,4.008,9.354,7.167
			c2.098,3.158,3.155,7.652,3.155,13.477v2.189c0,8.743-2.184,15.14-6.559,19.187c-4.368,4.053-10.2,6.072-17.485,6.072h-23.683
			c-1.379,0-2.496-0.342-3.34-1.03C976.52,293.552,976.097,292.718,976.097,291.75z M986.295,242.929h15.18
			c5.021,0,8.704-1.135,11.053-3.405c2.35-2.265,3.525-5.87,3.525-10.807c0-8.668-4.98-12.995-14.945-12.995h-14.814V242.929z
			 M986.295,286.04h16.396c10.366,0,15.549-5.544,15.549-16.638v-2.063c0-5.589-1.321-9.637-3.948-12.148
			c-2.632-2.506-6.498-3.766-11.601-3.766h-16.396V286.04z"/>
		<path id="XMLID_100_" class="st2" d="M720.912,383.966c0-0.161,0.109-0.514,0.327-1.065l14.105-26.977l-13.859-26.735
			c-0.327-0.543-0.493-1.064-0.493-1.558c0-1.146,0.768-1.717,2.299-1.717c0.818,0,1.687,0.953,2.623,2.873l11.891,23.199
			l11.965-23.199c0-0.061,0.111-0.302,0.331-0.744l0.493-0.823c0.105-0.099,0.275-0.292,0.493-0.574
			c0.214-0.27,0.437-0.461,0.657-0.572c0.214-0.11,0.437-0.16,0.653-0.16c1.531,0,2.299,0.571,2.299,1.717
			c0,0.494-0.166,1.015-0.495,1.558l-13.937,26.735l14.187,26.977c0.216,0.55,0.327,0.904,0.327,1.065
			c0,0.551-0.236,1.023-0.698,1.434c-0.468,0.414-1.001,0.614-1.603,0.614c-0.162,0-0.325-0.02-0.487-0.081
			c-0.164-0.11-0.306-0.21-0.411-0.321l-0.411-0.331c-0.107-0.111-0.232-0.271-0.366-0.492c-0.136-0.221-0.222-0.382-0.247-0.494
			c-0.023-0.108-0.127-0.3-0.286-0.571c-0.166-0.273-0.244-0.442-0.244-0.493l-12.219-23.45l-12.139,23.45
			c0,0.051-0.084,0.22-0.245,0.493c-0.166,0.271-0.261,0.463-0.286,0.571c-0.029,0.112-0.111,0.273-0.245,0.494
			c-0.136,0.221-0.261,0.381-0.374,0.492l-0.323,0.331c-0.111,0.11-0.263,0.202-0.448,0.282c-0.195,0.081-0.37,0.12-0.538,0.12
			c-0.547,0-1.068-0.2-1.557-0.614C721.157,384.988,720.912,384.516,720.912,383.966z"/>
		<path id="XMLID_96_" class="st2" d="M767.487,384.135v-56.424c0-1.145,0.682-1.716,2.048-1.716s2.05,0.571,2.05,1.716v56.424
			c0,1.195-0.684,1.797-2.05,1.797S767.487,385.331,767.487,384.135z"/>
		<path id="XMLID_93_" class="st2" d="M788.643,384.135v-56.424c0-1.145,0.682-1.716,2.048-1.716c1.035,0,2.159,1.125,3.359,3.363
			l23.699,46.823v-48.47c0-1.145,0.688-1.716,2.048-1.716c1.366,0,2.05,0.571,2.05,1.716v56.424c0,1.195-0.684,1.797-2.05,1.797
			c-0.875,0-1.857-1.004-2.946-3.032l-24.11-47.235v48.469c0,1.195-0.684,1.797-2.05,1.797
			C789.325,385.933,788.643,385.331,788.643,384.135z"/>
		<path id="XMLID_91_" class="st2" d="M859.403,384.216v-56.414c0-1.204,0.657-1.806,1.968-1.806h29.112
			c0.544,0,0.976,0.19,1.272,0.571c0.3,0.382,0.45,0.823,0.45,1.317c0,0.542-0.166,1.023-0.491,1.435
			c-0.327,0.402-0.738,0.613-1.231,0.613h-26.976v24.104h13.035c0.493,0,0.898,0.19,1.231,0.572
			c0.325,0.381,0.493,0.855,0.493,1.397c0,1.205-0.573,1.807-1.724,1.807h-13.035v26.404c0,1.144-0.684,1.717-2.054,1.717
			C860.085,385.933,859.403,385.36,859.403,384.216z"/>
		<path id="XMLID_85_" class="st2" d="M890.89,384.135c0-0.221,0.029-0.382,0.086-0.491l17.53-56.665
			c0.321-0.983,1.07-1.477,2.245-1.477c1.171,0,1.919,0.503,2.241,1.517l17.511,57.086c0,0,0.008,0.051,0.035,0.142
			c0.027,0.09,0.045,0.18,0.045,0.26c0,0.391-0.247,0.732-0.74,1.004c-0.491,0.282-1.039,0.421-1.641,0.421
			c-0.873,0-1.42-0.412-1.643-1.225l-4.012-13.036h-23.633l-3.973,13.017c-0.269,0.832-0.863,1.244-1.781,1.244
			c-0.594,0-1.12-0.16-1.582-0.492C891.12,385.118,890.89,384.677,890.89,384.135z M900.065,367.896h21.33l-10.638-35.031
			L900.065,367.896z"/>
		<path id="XMLID_78_" class="st2" d="M943.044,384.216v-56.414c0-1.204,0.659-1.806,1.968-1.806h12.79
			c5.36,0,9.504,0.973,12.425,2.911c2.923,1.938,4.384,5.565,4.384,10.868c0,3.443-0.627,6.347-1.888,8.727
			c-1.257,2.381-2.948,4.036-5.078,4.961c2.728,1.145,4.822,2.823,6.268,5.001c1.446,2.189,2.173,5.273,2.173,9.271v1.476
			c0,5.845-1.459,10.094-4.384,12.746c-2.925,2.651-6.847,3.976-11.765,3.976h-14.925c-0.602,0-1.083-0.16-1.434-0.492
			C943.219,385.118,943.044,384.708,943.044,384.216z M947.147,351.575h11.067c4.32,0,7.447-0.853,9.386-2.582
			c1.945-1.717,2.913-4.69,2.913-8.898c0-3.936-1.064-6.609-3.197-8.034c-2.13-1.417-5.273-2.129-9.427-2.129h-10.742V351.575z
			 M947.147,381.997h12.462c8.254,0,12.375-4.32,12.375-12.956v-1.386c0-4.318-1.044-7.451-3.153-9.39
			c-2.106-1.938-5.179-2.913-9.222-2.913h-12.462V381.997z"/>
	</g>
	<g id="XMLID_52_">
		<path id="XMLID_72_" d="M682.944,207.314v-27.266h36.353V150.31h19.38v29.738h37.155v27.266h-69.449
			c2.136,4.958,5.367,12.405,9.683,22.323c2.687,5.786,4.838,10.329,6.462,13.625l-12.115,9.917h23.421
			c5.913-14.876,11.307-29.754,16.145-44.615l18.584,9.92c-4.84,12.391-9.695,23.975-14.543,34.696h25.852v27.271h-40.387v28.499
			h36.348v27.27h-36.348v16.111l8.084-9.923c6.451,7.435,16.412,22.739,29.882,45.872l-13.728,18.58
			c-1.093-1.642-2.976-4.957-5.657-9.915c-8.623-16.508-14.817-27.665-18.581-33.462v78.096h-20.187v-79.334
			c-8.62,23.972-19.669,44.205-33.12,60.73l-12.11-22.309c16.684-18.995,29.343-40.48,37.959-64.448h-29.889v-27.27h37.16V280.45
			h-41.997V253.18h27.448c-4.839-11.563-9.682-22.722-14.525-33.461l15.342-12.405H682.944z M831.567,442.81V289.133h-24.244v4.937
			c1.073,66.116-6.453,116.519-22.613,151.212c-1.609-1.66-4.571-4.547-8.877-8.665c-3.776-4.153-6.741-7.449-8.892-9.918
			c14.541-28.916,21.274-73.939,20.201-135.099V173.853c1.073,0,2.948-0.399,5.648-1.234c31.761-3.296,55.188-7.021,70.258-11.155
			l6.471,29.757c-2.708,0.818-6.471,1.643-11.309,2.471c-20.999,3.307-37.961,5.779-50.887,7.444v58.241h65.42v29.757h-21.804
			V442.81H831.567z"/>
		<path id="XMLID_68_" class="st3" d="M903.189,435.223V313.582c0-1.686,0.556-3.017,1.66-3.983
			c1.113-0.966,2.385-1.442,3.831-1.442h50.859c1.344,0,2.377,0.657,3.106,1.982c0.724,1.339,1.081,2.904,1.081,4.715
			c0,2.052-0.358,3.734-1.081,5.066c-0.729,1.333-1.761,1.991-3.106,1.991h-44.21v45.975h22.539c1.344,0,2.382,0.63,3.099,1.901
			c0.724,1.273,1.086,2.806,1.086,4.617c0,1.566-0.362,2.987-1.086,4.251c-0.717,1.266-1.756,1.901-3.099,1.901h-22.539v54.667
			c0,1.69-0.603,2.985-1.804,3.891c-1.209,0.905-2.626,1.354-4.264,1.354c-1.64,0-3.059-0.449-4.261-1.354
			C903.794,438.208,903.189,436.914,903.189,435.223z"/>
		<path id="XMLID_65_" class="st3" d="M960.238,434.137c0-0.241,0.095-0.727,0.291-1.453l29.562-120.339
			c0.853-3.518,3.311-5.284,7.366-5.284c4.063,0,6.518,1.782,7.373,5.33l29.67,120.772c0,0.232,0.023,0.456,0.065,0.681
			c0.056,0.224,0.079,0.396,0.079,0.508c0,1.588-0.795,3.003-2.389,4.253c-1.584,1.241-3.299,1.864-5.129,1.864
			c-2.31,0-3.754-1.138-4.333-3.414l-6.348-26.815h-38.239l-6.328,26.718c-0.575,2.343-2.035,3.511-4.408,3.511
			c-1.696,0-3.336-0.599-4.892-1.805C961.021,437.459,960.238,435.949,960.238,434.137z M981.213,397.569h32.239l-16.074-68.187
			L981.213,397.569z"/>
		<path id="XMLID_61_" class="st3" d="M1047.005,434.815V312.894c0-1.689,0.572-3.024,1.722-3.992
			c1.149-0.968,2.472-1.445,3.974-1.445h25.789c9.404,0,16.825,2.232,22.275,6.712c5.45,4.47,8.172,12.58,8.172,24.31
			c0,7.495-1.123,13.811-3.374,18.957c-2.249,5.146-5.373,8.737-9.374,10.794c5.104,2.423,8.947,5.988,11.552,10.707
			c2.591,4.716,3.894,11.431,3.894,20.132v3.271c0,13.06-2.698,22.616-8.099,28.661c-5.394,6.055-12.593,9.071-21.59,9.071h-29.244
			c-1.702,0-3.078-0.511-4.123-1.539C1047.528,437.508,1047.005,436.262,1047.005,434.815z M1059.598,361.885h18.745
			c6.2,0,10.747-1.696,13.649-5.085c2.9-3.384,4.352-8.769,4.352-16.145c0-12.948-6.15-19.412-18.453-19.412h-18.292V361.885z
			 M1059.598,426.285h20.246c12.798,0,19.199-8.281,19.199-24.854v-3.082c0-8.35-1.632-14.396-4.874-18.146
			c-3.251-3.744-8.024-5.626-14.325-5.626h-20.246V426.285z"/>
		<g id="XMLID_55_">
			<path id="XMLID_60_" d="M901.35,279.807c0-0.353,0.207-1.127,0.618-2.331l26.667-59.039l-26.203-58.504
				c-0.618-1.187-0.93-2.328-0.93-3.409c0-2.507,1.451-3.757,4.348-3.757c1.544,0,3.188,2.084,4.956,6.288l22.483,50.77
				l22.623-50.77c0-0.132,0.211-0.661,0.626-1.629l0.932-1.801c0.2-0.219,0.519-0.64,0.933-1.256
				c0.405-0.59,0.825-1.008,1.242-1.251c0.404-0.241,0.824-0.35,1.233-0.35c2.896,0,4.346,1.25,4.346,3.757
				c0,1.081-0.313,2.222-0.937,3.409l-26.349,58.504l26.823,59.039c0.408,1.204,0.618,1.979,0.618,2.331
				c0,1.204-0.445,2.239-1.319,3.138c-0.883,0.905-1.893,1.343-3.032,1.343c-0.304,0-0.614-0.044-0.919-0.177
				c-0.311-0.241-0.579-0.463-0.778-0.701l-0.776-0.727c-0.203-0.242-0.44-0.591-0.694-1.077c-0.259-0.484-0.42-0.836-0.468-1.08
				c-0.043-0.236-0.239-0.657-0.542-1.249c-0.313-0.598-0.462-0.969-0.462-1.079l-23.1-51.32l-22.951,51.32
				c0,0.109-0.156,0.48-0.463,1.079c-0.312,0.592-0.495,1.013-0.543,1.249c-0.054,0.245-0.209,0.596-0.464,1.08
				c-0.257,0.485-0.494,0.834-0.706,1.077l-0.611,0.727c-0.211,0.238-0.499,0.439-0.849,0.614c-0.368,0.178-0.699,0.264-1.016,0.264
				c-1.036,0-2.019-0.438-2.943-1.343C901.814,282.046,901.35,281.011,901.35,279.807z"/>
			<path id="XMLID_59_" d="M995.615,280.179V156.698c0-2.504,1.274-3.754,3.825-3.754c2.55,0,3.828,1.25,3.828,3.754v123.481
				c0,2.615-1.278,3.932-3.828,3.932C996.889,284.111,995.615,282.794,995.615,280.179z"/>
			<path id="XMLID_56_" d="M1044.427,280.179V156.698c0-2.504,1.315-3.754,3.948-3.754c1.995,0,4.164,2.461,6.48,7.36
				l45.698,102.467V156.698c0-2.504,1.326-3.754,3.951-3.754c2.634,0,3.953,1.25,3.953,3.754v123.481
				c0,2.615-1.318,3.932-3.953,3.932c-1.688,0-3.581-2.199-5.682-6.636l-46.493-103.369v106.073c0,2.615-1.318,3.932-3.952,3.932
				C1045.742,284.111,1044.427,282.794,1044.427,280.179z"/>
		</g>
	</g>
	<g id="XMLID_18_">
		<path id="XMLID_45_" d="M253.79,589.512L0,442.125V147.386L253.79,0l253.79,147.386v294.739L253.79,589.512z M5.976,438.69
			L253.79,582.603L501.61,438.69V150.821L253.79,6.905L5.976,150.821V438.69z"/>
	</g>
	<g id="XMLID_13_">
		<rect id="XMLID_14_" x="252.796" y="3.45" width="5.97" height="582.608"/>
	</g>
	<g id="XMLID_4_">
		
			<rect id="XMLID_12_" x="252.797" y="4.727" transform="matrix(0.5022 0.8647 -0.8647 0.5022 382.2064 -74.4623)" width="5.969" height="580.057"/>
	</g>
	<g id="XMLID_2_">
		
			<rect id="XMLID_3_" x="-34.247" y="291.771" transform="matrix(0.8648 0.5022 -0.5022 0.8648 182.6202 -88.5883)" width="580.057" height="5.97"/>
	</g>
</g>
</svg>